<?xml version="1.0" encoding="UTF-8"?>
<svg id="Layer_2" data-name="Layer 2" xmlns="http://www.w3.org/2000/svg" viewBox="0 0 38.03 38.03">
  <defs>
    <style>
      .cls-1 {
        fill: #e7ff00;
      }
    </style>
  </defs>
  <g id="Layer_1-2" data-name="Layer 1">
    <g>
      <rect class="cls-1" width="38.03" height="38.03" rx="4.22" ry="4.22"/>
      <path d="M22.94,21.77c2.2-.58,3.85-1.65,4.96-3.19,1.11-1.54,1.67-3.27,1.67-5.19,0-1.67-.4-3.17-1.19-4.52-.79-1.35-1.98-2.42-3.57-3.21s-3.5-1.19-5.75-1.19h-10.92v4.82c0,3.37,3.49,5.72,6.56,4.3.02,0,.04-.02.06-.03.14-.06.26-.12.4-.18.59-.28,1.16-.58,1.74-.9l-2.97-2.42,8.16-1.53.61-.11,1.45-.26-4.52,10.09-1.24-3.3c-3,2.74-6.49,5-10.24,6.67v11.96h5.84v-11.34h2.75l6.42,11.34h6.75l-6.96-11.8Z"/>
    </g>
  </g>
</svg>