<?xml version="1.0" encoding="UTF-8"?>
<svg id="Layer_2" data-name="Layer 2" xmlns="http://www.w3.org/2000/svg" viewBox="0 0 153.45 25.52">
  <defs>
    <style>
      .cls-1 {
        fill: #e7ff00;
      }

      .cls-2 {
        fill: #fff;
      }
    </style>
  </defs>
  <g id="Layer_1-2" data-name="Layer 1">
    <g>
      <path class="cls-1" d="M21.76,10.63c.76-1.48,1.79-2.61,3.1-3.41,1.31-.79,2.77-1.19,4.38-1.19,1.41,0,2.64.28,3.7.85,1.06.57,1.9,1.28,2.54,2.15v-2.69h4.8v18.88h-4.8v-2.76c-.61.89-1.46,1.62-2.54,2.2s-2.32.87-3.73.87c-1.59,0-3.04-.41-4.34-1.23-1.31-.82-2.34-1.97-3.1-3.46s-1.14-3.2-1.14-5.13.38-3.6,1.14-5.08ZM34.79,12.8c-.46-.83-1.07-1.46-1.84-1.91-.77-.44-1.6-.66-2.49-.66s-1.7.22-2.45.65c-.75.43-1.36,1.06-1.82,1.89-.47.83-.7,1.81-.7,2.95s.23,2.13.7,2.98c.46.85,1.08,1.51,1.84,1.96.76.45,1.57.68,2.44.68s1.72-.22,2.49-.67c.77-.44,1.38-1.08,1.84-1.91.45-.83.68-1.82.68-2.98s-.23-2.15-.68-2.98Z"/>
      <path class="cls-1" d="M60.86,8.2c1.38,1.42,2.08,3.4,2.08,5.95v11.08h-4.77v-10.43c0-1.5-.38-2.65-1.12-3.46s-1.77-1.21-3.07-1.21-2.36.4-3.12,1.21c-.76.81-1.14,1.96-1.14,3.46v10.43h-4.77V6.34h4.77v2.35c.64-.82,1.45-1.46,2.44-1.92s2.07-.7,3.25-.7c2.25,0,4.07.71,5.45,2.13Z"/>
      <path class="cls-1" d="M78.65,25.22l-6.41-8.04v8.04h-4.77V0h4.77v14.35l6.34-8.01h6.2l-8.31,9.47,8.38,9.41h-6.2Z"/>
      <path class="cls-2" d="M101.52,1.53v3.17h-10.05v6.99h7.84v3.17h-7.84v10.36h-3.89V1.53h13.94Z"/>
      <path class="cls-2" d="M122.2,17.28h-14.35c.11,1.5.67,2.7,1.67,3.61,1,.91,2.23,1.36,3.68,1.36,2.09,0,3.57-.88,4.43-2.62h4.19c-.57,1.73-1.6,3.14-3.08,4.24-1.49,1.1-3.33,1.65-5.54,1.65-1.79,0-3.4-.4-4.82-1.21-1.42-.81-2.53-1.94-3.34-3.41-.81-1.46-1.21-3.16-1.21-5.09s.39-3.63,1.18-5.09c.78-1.46,1.89-2.59,3.31-3.39,1.42-.79,3.05-1.19,4.89-1.19s3.35.39,4.74,1.16c1.39.77,2.46,1.86,3.24,3.25s1.16,3,1.16,4.82c0,.7-.04,1.34-.14,1.91ZM118.28,14.14c-.02-1.43-.53-2.58-1.53-3.44-1-.86-2.24-1.29-3.71-1.29-1.34,0-2.49.43-3.44,1.28-.95.85-1.52,2-1.7,3.46h10.39Z"/>
      <path class="cls-2" d="M129,24.72c-1.17-.53-2.1-1.26-2.78-2.18-.68-.92-1.04-1.95-1.09-3.08h4.02c.07.8.45,1.46,1.14,1.99s1.56.8,2.61.8,1.94-.21,2.54-.63c.6-.42.9-.96.9-1.62,0-.7-.33-1.23-1-1.57-.67-.34-1.73-.71-3.19-1.12-1.41-.39-2.56-.76-3.44-1.12-.89-.36-1.65-.92-2.3-1.67-.65-.75-.97-1.74-.97-2.96,0-1,.29-1.91.89-2.74.59-.83,1.44-1.48,2.54-1.96,1.1-.48,2.37-.72,3.8-.72,2.13,0,3.86.54,5.16,1.62s2,2.55,2.1,4.41h-3.88c-.07-.84-.41-1.51-1.02-2.01-.61-.5-1.44-.75-2.49-.75s-1.81.19-2.35.58c-.54.39-.82.9-.82,1.53,0,.5.18.92.54,1.26s.81.61,1.33.8,1.29.44,2.32.73c1.36.36,2.48.73,3.36,1.11.87.38,1.63.93,2.27,1.65.64.73.96,1.69.99,2.9,0,1.07-.3,2.02-.89,2.86-.59.84-1.43,1.5-2.5,1.98-1.08.48-2.35.72-3.8.72s-2.8-.27-3.97-.8Z"/>
      <path class="cls-2" d="M148.89,9.61v10.39c0,.7.17,1.21.49,1.52.33.31.89.46,1.69.46h2.39v3.24h-3.07c-1.75,0-3.09-.41-4.02-1.23-.93-.82-1.4-2.15-1.4-3.99v-10.39h-2.21v-3.17h2.21V1.77h3.92v4.67h4.57v3.17h-4.57Z"/>
      <path class="cls-1" d="M12.1,15.57c1.79-.48,3.15-1.35,4.05-2.61.91-1.26,1.36-2.68,1.36-4.24,0-1.36-.32-2.59-.97-3.7-.65-1.1-1.62-1.98-2.91-2.62s-2.86-.97-4.7-.97H0v3.94c0,2.76,2.85,4.67,5.36,3.51.02,0,.04-.02.05-.02.11-.05.21-.1.33-.15.48-.23.95-.48,1.42-.74l-2.43-1.97,6.67-1.25.5-.09,1.18-.21-3.69,8.24-1.02-2.7c-2.46,2.24-5.31,4.08-8.37,5.45v9.77h4.77v-9.27h2.25l5.25,9.27h5.52l-5.69-9.64Z"/>
    </g>
  </g>
</svg>